<?xml version="1.0" encoding="UTF-8"?>
<svg id="Layer_2" data-name="Layer 2" xmlns="http://www.w3.org/2000/svg" viewBox="0 0 1269.46 691.65">
  <defs>
    <style>
      .cls-1 {
        fill: #000;
      }

      .cls-1, .cls-2 {
        stroke-width: 0px;
      }

      .cls-2 {
        fill: #fff;
      }
    </style>
  </defs>
  <g id="Layer_1-2" data-name="Layer 1">
    <g>
      <path class="cls-2" d="M20,671.65h1229.46V20H20v651.65ZM38.03,167.17V36.89h1003.36c3.48-.08,6.95-.08,10.4,0,59.5,1.45,93.68,23.23,108.22,52.95,23.31,47.65,10.6,101.25,12.38,108.37,1.78,7.12,1.78,44.47,35.58,96.05,33.8,51.58,5.34,59.59-5.34,51.58-10.67-8-45.01-50.62-80.04-74.71-28.46-19.57-113.84-61.37-133.41-62.26-19.57-.89-30.83,17.59-35.58,37.35-4.11,17.12-27.71,86.84-26.68,101.39.89,12.55-.89,40.91,55.14,48.03,56.03,7.12,186.77,48.92,222.34,119.18,24.08,47.56,23.06,137.82,23.06,137.82l-1189.44,1.19V167.17Z"/>
      <path class="cls-1" d="M0,0v691.65h1269.46V0H0ZM1249.46,671.65H20V20h1229.46v651.65Z"/>
      <path class="cls-1" d="M292.38,465.25c8.87,4.99,18.85,7.48,29.94,7.48s21.06-2.5,29.94-7.48c8.87-4.99,15.84-11.96,20.91-20.91,5.07-8.95,7.6-18.97,7.6-30.06s-2.54-21.11-7.6-30.06c-5.07-8.95-12.04-15.92-20.91-20.91-8.87-4.99-18.85-7.49-29.94-7.49s-21.07,2.5-29.94,7.49c-8.87,4.99-15.84,11.96-20.91,20.91-5.07,8.95-7.6,18.97-7.6,30.06s2.53,21.11,7.6,30.06c5.07,8.95,12.04,15.92,20.91,20.91Z"/>
      <path class="cls-1" d="M252.24,550.82c-4.55-3.72-11.22-5.58-20-5.58h-23.57v43.26h23.57c8.78,0,15.45-1.89,20-5.66,4.55-3.77,6.82-9.12,6.82-16.05s-2.27-12.25-6.82-15.97Z"/>
      <path class="cls-1" d="M1113.07,172.31c3.85,1.61,7.18,1.15,9.9-1.37,5.07-4.69,6.98-15.17,4.26-23.36-1.43-4.32-4.69-9.64-12.08-10.43-.36-.04-.7-.06-1.04-.06-6.96,0-9.55,7.89-10.2,10.41-2.39,9.3.38,21.13,9.16,24.8Z"/>
      <polygon class="cls-1" points="332.73 595.78 373.51 595.78 353.04 548.34 332.73 595.78"/>
      <path class="cls-1" d="M492.79,550.82c-4.55-3.72-11.22-5.58-20-5.58h-23.57v43.11h23.57c8.78,0,15.45-1.86,20-5.58,4.55-3.72,6.82-9.04,6.82-15.97s-2.27-12.25-6.82-15.97Z"/>
      <path class="cls-1" d="M578.79,414.29c0-11.09-2.54-21.11-7.6-30.06-5.07-8.95-12.04-15.92-20.91-20.91-8.87-4.99-18.85-7.49-29.94-7.49s-21.07,2.5-29.94,7.49c-8.87,4.99-15.84,11.96-20.91,20.91-5.07,8.95-7.6,18.97-7.6,30.06s2.53,21.11,7.6,30.06c5.07,8.95,12.04,15.92,20.91,20.91,8.87,4.99,18.85,7.48,29.94,7.48s21.06-2.5,29.94-7.48c8.87-4.99,15.84-11.96,20.91-20.91,5.07-8.95,7.6-18.97,7.6-30.06Z"/>
      <path class="cls-1" d="M1204.41,514.82c-35.58-70.26-166.31-112.06-222.34-119.18-56.03-7.11-54.25-35.48-55.14-48.03-1.03-14.55,22.57-84.27,26.68-101.39,4.74-19.76,16.01-38.24,35.58-37.35,19.57.89,104.95,42.69,133.41,62.26,35.03,24.09,69.37,66.7,80.04,74.71,10.67,8,39.13,0,5.34-51.58-33.8-51.58-33.8-88.94-35.58-96.05-1.78-7.11,10.93-60.71-12.38-108.37-14.54-29.72-48.72-51.5-108.22-52.95-3.46-.08-6.92-.08-10.4,0H38.03v616.94l1189.44-1.19s1.02-90.26-23.06-137.82ZM1098.11,146.01c2.58-10.04,9.37-15.71,17.68-14.83,8.12.87,14.37,6.16,17.14,14.51,3.44,10.38.86,23.41-5.88,29.65-2.8,2.6-6.12,3.92-9.7,3.92-2.13,0-4.35-.47-6.6-1.41-11.77-4.93-15.68-20.06-12.65-31.83ZM1010.92,80.98c44.07-35.92,57.15,35.04,60.3,52.84,4.69,26.49,8,34.08,15.4,53.62,10.9,28.77.06,44.16-18.36,35.01-31.54-15.67-65.47-27.02-75.2-29.84-7.99-2.31-12.99-7.32-16.23-25.36-3.25-18.04,7.07-64.25,34.09-86.27ZM779.21,63.04l68.6,114.11,69.27-114.11h42.83l-91.69,151.59v82.66h-43.5v-81.99l-92.03-152.26h46.52ZM897.89,400.27v25.42h-80.31v45.86h93.85v25.9h-124.74v-166.32h121.42v25.9h-90.53v43.24h80.31ZM597.33,63.04h43.5v197.44h122.48v36.81h-165.98V63.04ZM395.84,63.04h43.5v197.44h122.48v36.81h-165.98V63.04ZM288.7,63.04h43.5v234.25h-43.5V63.04ZM276.46,339.8c13.62-7.37,28.91-11.05,45.86-11.05s32.23,3.68,45.86,11.05c13.62,7.37,24.31,17.55,32.08,30.53,7.76,12.99,11.64,27.64,11.64,43.96s-3.88,30.97-11.64,43.96c-7.76,12.99-18.46,23.17-32.08,30.53-13.62,7.37-28.91,11.05-45.86,11.05s-32.24-3.68-45.86-11.05c-13.62-7.37-24.32-17.58-32.08-30.65-7.76-13.07-11.64-27.68-11.64-43.84s3.88-30.77,11.64-43.84c7.76-13.07,18.45-23.29,32.08-30.65ZM192.05,217.48c-4.8-4.35-10.88-7.75-18.24-10.21-7.36-2.45-17.4-5.24-30.12-8.37-17.85-4.24-32.29-8.48-43.34-12.72-11.04-4.24-20.53-10.88-28.45-19.91-7.92-9.04-11.88-21.25-11.88-36.64,0-12.94,3.51-24.71,10.54-35.3,7.03-10.59,17.62-19.02,31.79-25.27,14.17-6.24,31.51-9.37,52.04-9.37,14.27,0,28.33,1.79,42.17,5.35,13.83,3.57,25.77,8.7,35.81,15.39l-13.72,33.8c-10.26-6.02-20.97-10.59-32.13-13.72-11.16-3.12-21.98-4.69-32.46-4.69-17.18,0-29.95,2.9-38.32,8.7-8.37,5.8-12.55,13.5-12.55,23.09,0,6.69,2.4,12.16,7.2,16.4,4.79,4.24,10.88,7.59,18.24,10.04,7.36,2.46,17.4,5.24,30.12,8.37,17.4,4.02,31.68,8.2,42.83,12.55,11.15,4.35,20.69,10.99,28.61,19.91,7.92,8.92,11.88,20.97,11.88,36.14,0,12.94-3.51,24.65-10.54,35.14-7.03,10.49-17.68,18.86-31.96,25.1-14.28,6.24-31.68,9.37-52.2,9.37-18.07,0-35.53-2.57-52.37-7.7-16.85-5.13-30.18-11.93-39.99-20.41l15.06-33.8c9.59,7.59,21.36,13.78,35.31,18.57,13.94,4.8,27.94,7.2,42,7.2,17.4,0,30.4-2.79,38.99-8.37,8.59-5.57,12.88-12.94,12.88-22.09,0-6.69-2.4-12.21-7.2-16.57ZM84.41,601.99c3.36,5.79,8.01,10.34,13.96,13.64,5.94,3.31,12.69,4.96,20.23,4.96,8.47,0,15.92-1.86,22.33-5.58v-33.8h19.07v43.26c-5.58,4.45-12.09,7.86-19.54,10.23-7.44,2.38-15.09,3.57-22.95,3.57-11.06,0-21.04-2.4-29.93-7.21-8.89-4.81-15.87-11.45-20.93-19.92-5.07-8.47-7.6-18.04-7.6-28.69s2.53-20.21,7.6-28.68c5.06-8.47,12.07-15.12,21.01-19.92,8.94-4.81,18.99-7.21,30.16-7.21,9.1,0,17.37,1.5,24.81,4.5,7.44,3,13.7,7.39,18.76,13.18l-12.71,12.41c-8.27-8.27-18.25-12.41-29.93-12.41-7.65,0-14.45,1.6-20.39,4.81-5.95,3.21-10.6,7.7-13.96,13.49-3.36,5.79-5.04,12.4-5.04,19.85s1.68,13.75,5.04,19.54ZM143.33,499.82c-16.95,0-32.24-3.68-45.86-11.05-13.62-7.37-24.32-17.54-32.08-30.53-7.76-12.99-11.64-27.64-11.64-43.96s3.88-30.97,11.64-43.96c7.76-12.99,18.49-23.17,32.2-30.53,13.7-7.37,29.11-11.05,46.21-11.05,13.94,0,26.61,2.3,38.02,6.89,11.4,4.6,20.99,11.33,28.75,20.2l-19.48,19.01c-12.67-12.67-27.96-19.01-45.86-19.01-11.72,0-22.14,2.46-31.25,7.37-9.11,4.91-16.24,11.8-21.38,20.67-5.15,8.87-7.72,19.01-7.72,30.41s2.57,21.07,7.72,29.94c5.15,8.87,12.27,15.84,21.38,20.91,9.11,5.07,19.44,7.6,31.01,7.6,12.99,0,24.39-2.85,34.21-8.55v-51.8h29.23v66.29c-8.55,6.81-18.53,12.04-29.94,15.68s-23.13,5.46-35.17,5.46ZM259.53,636.72l-22.17-31.79c-.93.1-2.33.16-4.19.16h-24.5v31.63h-20.16v-108.54h44.66c9.41,0,17.6,1.55,24.58,4.65,6.98,3.1,12.33,7.55,16.05,13.33,3.72,5.79,5.58,12.66,5.58,20.62s-1.99,15.2-5.97,21.09c-3.98,5.89-9.69,10.29-17.13,13.18l24.96,35.66h-21.71ZM391.03,636.72l-10.85-25.12h-54.27l-10.7,25.12h-20.78l48.84-108.54h19.85l49,108.54h-21.09ZM514.34,587.33c-3.72,5.84-9.07,10.31-16.05,13.41-6.98,3.1-15.17,4.65-24.58,4.65h-24.5v31.32h-20.16v-108.54h44.66c9.41,0,17.6,1.55,24.58,4.65,6.98,3.1,12.33,7.55,16.05,13.33,3.72,5.79,5.58,12.66,5.58,20.62s-1.86,14.71-5.58,20.54ZM474.48,488.77c-13.62-7.37-24.32-17.58-32.08-30.65-7.76-13.07-11.64-27.68-11.64-43.84s3.88-30.77,11.64-43.84c7.76-13.07,18.45-23.29,32.08-30.65,13.62-7.37,28.91-11.05,45.86-11.05s32.23,3.68,45.86,11.05c13.62,7.37,24.31,17.55,32.08,30.53,7.76,12.99,11.64,27.64,11.64,43.96s-3.88,30.97-11.64,43.96c-7.76,12.99-18.46,23.17-32.08,30.53-13.62,7.37-28.91,11.05-45.86,11.05s-32.24-3.68-45.86-11.05ZM638.28,636.72h-20.16v-46.52h-56.13v46.52h-20.16v-108.54h20.16v44.81h56.13v-44.81h20.16v108.54ZM689.42,636.72h-20.16v-108.54h20.16v108.54ZM653.8,494.36c-11.96-3.64-21.42-8.47-28.39-14.49l10.69-24c6.81,5.39,15.17,9.78,25.07,13.19,9.9,3.41,19.84,5.11,29.82,5.11,12.36,0,21.58-1.98,27.68-5.94,6.1-3.96,9.15-9.18,9.15-15.68,0-4.75-1.7-8.67-5.11-11.76-3.41-3.09-7.72-5.5-12.95-7.25-5.23-1.74-12.36-3.72-21.38-5.94-12.67-3.01-22.93-6.02-30.77-9.03-7.84-3.01-14.58-7.72-20.2-14.14-5.62-6.42-8.44-15.09-8.44-26.02,0-9.19,2.5-17.54,7.49-25.07,4.99-7.52,12.51-13.5,22.57-17.94,10.06-4.43,22.37-6.65,36.95-6.65,10.14,0,20.12,1.27,29.94,3.8,9.82,2.54,18.3,6.18,25.42,10.93l-9.74,24c-7.29-4.28-14.89-7.52-22.81-9.74-7.92-2.22-15.6-3.33-23.05-3.33-12.2,0-21.27,2.06-27.21,6.18-5.94,4.12-8.91,9.59-8.91,16.39,0,4.75,1.7,8.64,5.11,11.64,3.4,3.01,7.72,5.39,12.95,7.13,5.23,1.75,12.36,3.72,21.38,5.94,12.36,2.85,22.49,5.82,30.41,8.91,7.92,3.09,14.69,7.8,20.31,14.14,5.62,6.34,8.44,14.89,8.44,25.66,0,9.19-2.5,17.5-7.48,24.95-4.99,7.45-12.56,13.39-22.69,17.82-10.14,4.43-22.5,6.65-37.07,6.65-12.83,0-25.23-1.82-37.19-5.46ZM738.8,602.14c3.31,5.79,7.91,10.31,13.8,13.57,5.89,3.26,12.56,4.88,20,4.88,11.47,0,21.14-4.29,29-12.87l13.02,12.4c-5.07,5.89-11.29,10.39-18.68,13.49-7.39,3.1-15.53,4.65-24.42,4.65-10.96,0-20.85-2.4-29.69-7.21s-15.76-11.45-20.78-19.92c-5.02-8.47-7.52-18.04-7.52-28.69s2.53-20.21,7.6-28.68c5.06-8.47,12.02-15.12,20.86-19.92,8.84-4.81,18.73-7.21,29.69-7.21,8.89,0,17,1.55,24.34,4.65,7.34,3.1,13.54,7.6,18.61,13.49l-13.02,12.25c-7.86-8.47-17.52-12.71-29-12.71-7.44,0-14.11,1.63-20,4.88-5.89,3.26-10.49,7.78-13.8,13.57-3.31,5.79-4.96,12.35-4.96,19.69s1.65,13.9,4.96,19.69ZM911.25,622.3c-3.26,4.86-8.19,8.74-14.81,11.63-6.62,2.89-14.68,4.34-24.19,4.34-8.37,0-16.46-1.19-24.27-3.57-7.81-2.38-13.98-5.53-18.53-9.46l6.98-15.66c4.44,3.52,9.9,6.38,16.36,8.61,6.46,2.22,12.95,3.33,19.46,3.33,8.06,0,14.08-1.29,18.06-3.88,3.98-2.58,5.97-5.99,5.97-10.23,0-3.1-1.11-5.66-3.33-7.67-2.22-2.02-5.04-3.59-8.45-4.73-3.41-1.14-8.06-2.43-13.96-3.88-8.27-1.96-14.96-3.93-20.08-5.89-5.12-1.96-9.51-5.04-13.18-9.23-3.67-4.19-5.5-9.85-5.5-16.98,0-5.99,1.63-11.45,4.88-16.36,3.26-4.91,8.17-8.81,14.73-11.71,6.56-2.89,14.6-4.34,24.11-4.34,6.61,0,13.13.83,19.54,2.48,6.41,1.66,11.94,4.03,16.59,7.13l-6.36,15.66c-4.76-2.79-9.72-4.91-14.89-6.36-5.17-1.45-10.18-2.17-15.04-2.17-7.96,0-13.88,1.34-17.75,4.03-3.88,2.69-5.81,6.26-5.81,10.7,0,3.1,1.11,5.64,3.33,7.6,2.22,1.96,5.04,3.51,8.45,4.65,3.41,1.14,8.06,2.43,13.96,3.88,8.06,1.86,14.68,3.8,19.85,5.81,5.17,2.02,9.59,5.09,13.26,9.23,3.67,4.14,5.5,9.72,5.5,16.75,0,6-1.63,11.42-4.88,16.28Z"/>
      <path class="cls-2" d="M1110.76,177.84c2.25.94,4.47,1.41,6.6,1.41,3.57,0,6.89-1.32,9.7-3.92,6.74-6.24,9.32-19.27,5.88-29.65-2.77-8.35-9.01-13.64-17.14-14.51-8.31-.88-15.1,4.79-17.68,14.83-3.03,11.78.88,26.9,12.65,31.83ZM1103.92,147.5c.65-2.52,3.24-10.41,10.2-10.41.33,0,.68.02,1.04.06,7.39.79,10.65,6.11,12.08,10.43,2.72,8.19.8,18.67-4.26,23.36-2.72,2.52-6.05,2.98-9.9,1.37-8.78-3.68-11.55-15.5-9.16-24.8Z"/>
      <path class="cls-2" d="M993.07,192.61c9.73,2.82,43.66,14.16,75.2,29.84,18.42,9.15,29.26-6.24,18.36-35.01-7.4-19.54-10.71-27.13-15.4-53.62-3.15-17.8-16.23-88.76-60.3-52.84-27.02,22.02-37.33,68.23-34.09,86.27,3.25,18.04,8.24,23.05,16.23,25.36Z"/>
      <path class="cls-2" d="M186.36,256.14c-8.59,5.58-21.58,8.37-38.99,8.37-14.06,0-28.06-2.4-42-7.2-13.95-4.79-25.72-10.99-35.31-18.57l-15.06,33.8c9.81,8.48,23.14,15.28,39.99,20.41,16.84,5.13,34.3,7.7,52.37,7.7,20.52,0,37.92-3.13,52.2-9.37,14.28-6.24,24.93-14.61,31.96-25.1,7.03-10.48,10.54-22.2,10.54-35.14,0-15.17-3.96-27.22-11.88-36.14-7.92-8.92-17.46-15.56-28.61-19.91-11.16-4.35-25.43-8.53-42.83-12.55-12.72-3.12-22.76-5.91-30.12-8.37-7.36-2.45-13.44-5.8-18.24-10.04-4.8-4.24-7.2-9.71-7.2-16.4,0-9.59,4.18-17.29,12.55-23.09,8.37-5.8,21.13-8.7,38.32-8.7,10.48,0,21.3,1.56,32.46,4.69,11.15,3.13,21.86,7.7,32.13,13.72l13.72-33.8c-10.04-6.69-21.98-11.82-35.81-15.39-13.83-3.57-27.89-5.35-42.17-5.35-20.53,0-37.87,3.13-52.04,9.37-14.17,6.25-24.76,14.67-31.79,25.27-7.03,10.6-10.54,22.37-10.54,35.3,0,15.39,3.96,27.61,11.88,36.64,7.92,9.04,17.4,15.68,28.45,19.91,11.04,4.24,25.49,8.48,43.34,12.72,12.72,3.13,22.76,5.91,30.12,8.37,7.36,2.46,13.44,5.86,18.24,10.21,4.79,4.35,7.2,9.87,7.2,16.57,0,9.15-4.3,16.51-12.88,22.09Z"/>
      <rect class="cls-2" x="288.7" y="63.04" width="43.5" height="234.25"/>
      <polygon class="cls-2" points="561.83 260.49 439.35 260.49 439.35 63.04 395.84 63.04 395.84 297.3 561.83 297.3 561.83 260.49"/>
      <polygon class="cls-2" points="763.32 260.49 640.84 260.49 640.84 63.04 597.33 63.04 597.33 297.3 763.32 297.3 763.32 260.49"/>
      <polygon class="cls-2" points="824.73 297.3 868.23 297.3 868.23 214.64 959.92 63.04 917.09 63.04 847.82 177.16 779.21 63.04 732.7 63.04 824.73 215.31 824.73 297.3"/>
      <path class="cls-2" d="M98.37,549.11c5.94-3.2,12.74-4.81,20.39-4.81,11.68,0,21.65,4.14,29.93,12.41l12.71-12.41c-5.07-5.79-11.32-10.18-18.76-13.18-7.44-3-15.71-4.5-24.81-4.5-11.16,0-21.22,2.4-30.16,7.21-8.94,4.81-15.95,11.45-21.01,19.92-5.07,8.48-7.6,18.04-7.6,28.68s2.53,20.21,7.6,28.69c5.06,8.48,12.04,15.12,20.93,19.92,8.89,4.81,18.86,7.21,29.93,7.21,7.85,0,15.5-1.19,22.95-3.57,7.44-2.38,13.95-5.79,19.54-10.23v-43.26h-19.07v33.8c-6.41,3.72-13.85,5.58-22.33,5.58-7.55,0-14.29-1.65-20.23-4.96-5.95-3.31-10.6-7.85-13.96-13.64-3.36-5.79-5.04-12.3-5.04-19.54s1.68-14.06,5.04-19.85c3.36-5.79,8.01-10.28,13.96-13.49Z"/>
      <path class="cls-2" d="M273.41,587.88c3.98-5.89,5.97-12.92,5.97-21.09s-1.86-14.83-5.58-20.62c-3.72-5.79-9.07-10.23-16.05-13.33-6.98-3.1-15.17-4.65-24.58-4.65h-44.66v108.54h20.16v-31.63h24.5c1.86,0,3.26-.05,4.19-.16l22.17,31.79h21.71l-24.96-35.66c7.44-2.89,13.15-7.29,17.13-13.18ZM252.24,582.84c-4.55,3.77-11.22,5.66-20,5.66h-23.57v-43.26h23.57c8.78,0,15.45,1.86,20,5.58,4.55,3.72,6.82,9.05,6.82,15.97s-2.27,12.28-6.82,16.05Z"/>
      <path class="cls-2" d="M343.27,528.18l-48.84,108.54h20.78l10.7-25.12h54.27l10.85,25.12h21.09l-49-108.54h-19.85ZM332.73,595.78l20.31-47.45,20.47,47.45h-40.78Z"/>
      <path class="cls-2" d="M498.29,532.83c-6.98-3.1-15.17-4.65-24.58-4.65h-44.66v108.54h20.16v-31.32h24.5c9.41,0,17.6-1.55,24.58-4.65,6.98-3.1,12.33-7.57,16.05-13.41,3.72-5.84,5.58-12.69,5.58-20.54s-1.86-14.83-5.58-20.62c-3.72-5.79-9.07-10.23-16.05-13.33ZM492.79,582.76c-4.55,3.72-11.22,5.58-20,5.58h-23.57v-43.11h23.57c8.78,0,15.45,1.86,20,5.58,4.55,3.72,6.82,9.05,6.82,15.97s-2.27,12.25-6.82,15.97Z"/>
      <polygon class="cls-2" points="618.12 572.99 561.99 572.99 561.99 528.18 541.83 528.18 541.83 636.72 561.99 636.72 561.99 590.2 618.12 590.2 618.12 636.72 638.28 636.72 638.28 528.18 618.12 528.18 618.12 572.99"/>
      <rect class="cls-2" x="669.26" y="528.18" width="20.16" height="108.54"/>
      <path class="cls-2" d="M752.6,549.19c5.89-3.26,12.56-4.88,20-4.88,11.47,0,21.14,4.24,29,12.71l13.02-12.25c-5.07-5.89-11.27-10.39-18.61-13.49-7.34-3.1-15.45-4.65-24.34-4.65-10.96,0-20.85,2.4-29.69,7.21-8.84,4.81-15.79,11.45-20.86,19.92-5.07,8.48-7.6,18.04-7.6,28.68s2.5,20.21,7.52,28.69c5.01,8.48,11.94,15.12,20.78,19.92s18.73,7.21,29.69,7.21c8.89,0,17.03-1.55,24.42-4.65,7.39-3.1,13.62-7.6,18.68-13.49l-13.02-12.4c-7.86,8.58-17.52,12.87-29,12.87-7.44,0-14.11-1.63-20-4.88-5.89-3.26-10.49-7.78-13.8-13.57-3.31-5.79-4.96-12.35-4.96-19.69s1.65-13.9,4.96-19.69c3.31-5.79,7.91-10.31,13.8-13.57Z"/>
      <path class="cls-2" d="M897.37,580.05c-5.17-2.02-11.78-3.95-19.85-5.81-5.89-1.45-10.54-2.74-13.96-3.88-3.41-1.14-6.23-2.69-8.45-4.65-2.22-1.96-3.33-4.5-3.33-7.6,0-4.44,1.94-8.01,5.81-10.7,3.88-2.69,9.79-4.03,17.75-4.03,4.86,0,9.87.72,15.04,2.17,5.17,1.45,10.13,3.57,14.89,6.36l6.36-15.66c-4.65-3.1-10.18-5.48-16.59-7.13-6.41-1.65-12.92-2.48-19.54-2.48-9.51,0-17.55,1.45-24.11,4.34-6.57,2.89-11.47,6.8-14.73,11.71-3.26,4.91-4.88,10.36-4.88,16.36,0,7.13,1.83,12.79,5.5,16.98,3.67,4.19,8.06,7.26,13.18,9.23,5.12,1.96,11.81,3.93,20.08,5.89,5.89,1.45,10.54,2.74,13.96,3.88,3.41,1.14,6.23,2.71,8.45,4.73,2.22,2.02,3.33,4.57,3.33,7.67,0,4.24-1.99,7.65-5.97,10.23-3.98,2.58-10,3.88-18.06,3.88-6.51,0-13-1.11-19.46-3.33-6.46-2.22-11.92-5.09-16.36-8.61l-6.98,15.66c4.55,3.93,10.72,7.08,18.53,9.46,7.8,2.38,15.89,3.57,24.27,3.57,9.51,0,17.57-1.45,24.19-4.34,6.61-2.89,11.55-6.77,14.81-11.63,3.26-4.86,4.88-10.29,4.88-16.28,0-7.03-1.84-12.61-5.5-16.75-3.67-4.13-8.09-7.21-13.26-9.23Z"/>
      <path class="cls-2" d="M208.43,412.38h-29.23v51.8c-9.82,5.7-21.23,8.55-34.21,8.55-11.56,0-21.9-2.53-31.01-7.6-9.11-5.07-16.24-12.04-21.38-20.91-5.15-8.87-7.72-18.85-7.72-29.94s2.57-21.54,7.72-30.41c5.15-8.87,12.27-15.76,21.38-20.67,9.11-4.91,19.52-7.37,31.25-7.37,17.9,0,33.18,6.34,45.86,19.01l19.48-19.01c-7.76-8.87-17.35-15.6-28.75-20.2-11.41-4.59-24.08-6.89-38.02-6.89-17.11,0-32.51,3.68-46.21,11.05-13.7,7.37-24.44,17.55-32.2,30.53-7.76,12.99-11.64,27.64-11.64,43.96s3.88,30.97,11.64,43.96c7.76,12.99,18.45,23.17,32.08,30.53,13.62,7.37,28.91,11.05,45.86,11.05,12.04,0,23.76-1.82,35.17-5.46s21.38-8.87,29.94-15.68v-66.29Z"/>
      <path class="cls-2" d="M244.38,458.12c7.76,13.07,18.45,23.29,32.08,30.65,13.62,7.37,28.91,11.05,45.86,11.05s32.23-3.68,45.86-11.05c13.62-7.37,24.31-17.54,32.08-30.53,7.76-12.99,11.64-27.64,11.64-43.96s-3.88-30.97-11.64-43.96c-7.76-12.99-18.46-23.17-32.08-30.53-13.62-7.37-28.91-11.05-45.86-11.05s-32.24,3.68-45.86,11.05c-13.62,7.37-24.32,17.58-32.08,30.65-7.76,13.07-11.64,27.68-11.64,43.84s3.88,30.77,11.64,43.84ZM271.47,384.23c5.07-8.95,12.04-15.92,20.91-20.91,8.87-4.99,18.85-7.49,29.94-7.49s21.06,2.5,29.94,7.49c8.87,4.99,15.84,11.96,20.91,20.91,5.07,8.95,7.6,18.97,7.6,30.06s-2.54,21.11-7.6,30.06c-5.07,8.95-12.04,15.92-20.91,20.91-8.87,4.99-18.85,7.48-29.94,7.48s-21.07-2.5-29.94-7.48c-8.87-4.99-15.84-11.96-20.91-20.91-5.07-8.95-7.6-18.97-7.6-30.06s2.53-21.11,7.6-30.06Z"/>
      <path class="cls-2" d="M598.27,458.24c7.76-12.99,11.64-27.64,11.64-43.96s-3.88-30.97-11.64-43.96c-7.76-12.99-18.46-23.17-32.08-30.53-13.62-7.37-28.91-11.05-45.86-11.05s-32.24,3.68-45.86,11.05c-13.62,7.37-24.32,17.58-32.08,30.65-7.76,13.07-11.64,27.68-11.64,43.84s3.88,30.77,11.64,43.84c7.76,13.07,18.45,23.29,32.08,30.65,13.62,7.37,28.91,11.05,45.86,11.05s32.23-3.68,45.86-11.05c13.62-7.37,24.31-17.54,32.08-30.53ZM550.27,465.25c-8.87,4.99-18.85,7.48-29.94,7.48s-21.07-2.5-29.94-7.48c-8.87-4.99-15.84-11.96-20.91-20.91-5.07-8.95-7.6-18.97-7.6-30.06s2.53-21.11,7.6-30.06c5.07-8.95,12.04-15.92,20.91-20.91,8.87-4.99,18.85-7.49,29.94-7.49s21.06,2.5,29.94,7.49c8.87,4.99,15.84,11.96,20.91,20.91,5.07,8.95,7.6,18.97,7.6,30.06s-2.54,21.11-7.6,30.06c-5.07,8.95-12.04,15.92-20.91,20.91Z"/>
      <path class="cls-2" d="M750.74,475.35c4.99-7.44,7.48-15.76,7.48-24.95,0-10.77-2.81-19.32-8.44-25.66-5.62-6.33-12.4-11.05-20.31-14.14-7.92-3.09-18.06-6.06-30.41-8.91-9.03-2.22-16.16-4.2-21.38-5.94-5.23-1.74-9.55-4.12-12.95-7.13-3.41-3.01-5.11-6.89-5.11-11.64,0-6.81,2.97-12.27,8.91-16.39,5.94-4.12,15.01-6.18,27.21-6.18,7.44,0,15.12,1.11,23.05,3.33,7.92,2.22,15.52,5.46,22.81,9.74l9.74-24c-7.13-4.75-15.6-8.39-25.42-10.93-9.82-2.53-19.8-3.8-29.94-3.8-14.58,0-26.89,2.22-36.95,6.65-10.06,4.44-17.58,10.42-22.57,17.94-4.99,7.53-7.49,15.88-7.49,25.07,0,10.93,2.81,19.6,8.44,26.02,5.62,6.42,12.36,11.13,20.2,14.14,7.84,3.01,18.09,6.02,30.77,9.03,9.03,2.22,16.16,4.2,21.38,5.94,5.23,1.75,9.54,4.16,12.95,7.25,3.41,3.09,5.11,7.01,5.11,11.76,0,6.5-3.05,11.72-9.15,15.68-6.1,3.96-15.33,5.94-27.68,5.94-9.98,0-19.92-1.7-29.82-5.11-9.9-3.4-18.26-7.8-25.07-13.19l-10.69,24c6.97,6.02,16.43,10.85,28.39,14.49,11.96,3.64,24.35,5.46,37.19,5.46,14.57,0,26.93-2.22,37.07-6.65,10.13-4.43,17.7-10.37,22.69-17.82Z"/>
      <polygon class="cls-2" points="908.11 357.02 908.11 331.12 786.69 331.12 786.69 497.45 911.43 497.45 911.43 471.55 817.58 471.55 817.58 425.69 897.89 425.69 897.89 400.27 817.58 400.27 817.58 357.02 908.11 357.02"/>
    </g>
  </g>
</svg>